<svg width="44" height="46" viewBox="0 0 44 46" fill="none" xmlns="http://www.w3.org/2000/svg">
<path d="M36.6164 16.7419C36.6086 16.7045 36.598 16.6679 36.5848 16.6324C35.3808 13.2503 33.2923 10.3381 30.584 8.26522C27.8202 6.13418 24.5269 4.99397 21.1533 5.00002C16.7377 5.02505 12.5114 6.9778 9.4009 10.4302C6.29044 13.8826 4.54977 18.5528 4.5606 23.4167C4.5606 26.0399 5.28361 27.9512 6.72961 31.759C6.95102 32.3414 7.18146 32.9735 7.44354 33.6654C7.49156 33.788 7.56468 33.8967 7.65718 33.9831C7.74968 34.0694 7.85908 34.1311 7.97678 34.1631C11.7364 35.2034 19.0657 37.3089 25.5275 39.1406C30.0055 40.4248 33.8735 41.5348 35.5184 41.9927C35.5813 42.0024 35.6452 42.0024 35.7082 41.9927C35.836 41.9943 35.9621 41.9605 36.075 41.8944C36.1879 41.8283 36.284 41.732 36.3543 41.6144C36.4582 41.4452 36.5713 41.271 36.6797 41.1166C37.8184 39.2849 39.3909 36.7813 39.6801 33.6504C39.6823 33.6206 39.6823 33.5907 39.6801 33.5609C39.7072 30.9726 37.4705 20.5347 36.6164 16.7419ZM38.0353 32.4558L22.4819 27.9761L21.6369 25.7561C21.5921 25.6373 21.5238 25.531 21.437 25.4449C21.3503 25.3588 21.2472 25.2951 21.1353 25.2584C20.3213 25.0188 19.6151 24.4593 19.1501 23.6854C18.6851 22.9114 18.4934 21.9767 18.6113 21.0578C18.7292 20.1388 19.1485 19.2992 19.79 18.6975C20.4316 18.0959 21.2509 17.7738 22.0933 17.7921H35.2472C36.3182 22.6303 37.6829 29.4096 38.0353 32.4459V32.4558ZM35.3918 40.1809V40.2158C33.5391 39.6931 29.9694 38.6777 25.9432 37.513C19.6893 35.7211 12.6265 33.6903 8.77208 32.6151C8.56873 32.0776 8.37894 31.5798 8.20271 31.1219C6.79287 27.4136 6.1512 25.7213 6.1512 23.4416C6.13797 19.0318 7.71347 14.7964 10.532 11.6647C13.3504 8.53301 17.1817 6.76087 21.185 6.73716C24.0109 6.73054 26.7806 7.60721 29.1722 9.2654C31.5638 10.9236 33.4792 13.2952 34.696 16.1048H22.0842C20.9101 16.1031 19.7729 16.556 18.8712 17.3843C17.9695 18.2126 17.3608 19.3636 17.1513 20.6362C16.9419 21.9087 17.1452 23.2218 17.7256 24.3461C18.3059 25.4703 19.2265 26.3341 20.3264 26.7865L21.185 29.0363C21.2314 29.1574 21.3023 29.2653 21.3924 29.3516C21.4825 29.4379 21.5893 29.5003 21.7047 29.534L38.0172 34.2428C37.6105 36.5971 36.395 38.5632 35.3918 40.1709V40.1809Z" fill="#F2F2F2"/>
<path d="M22.1212 9.83174C22.1212 9.61116 22.039 9.39957 21.8926 9.2436C21.7463 9.08763 21.5478 9 21.3408 9C17.853 9.02796 14.5179 10.5282 12.066 13.1721C9.6141 15.8159 8.2454 19.3878 8.25982 23.1051C8.25166 23.2193 8.26572 23.3341 8.30112 23.4423C8.33652 23.5504 8.39254 23.6496 8.46559 23.7336C8.53864 23.8176 8.62716 23.8846 8.72565 23.9305C8.82414 23.9763 8.93049 24 9.03796 24C9.14543 24 9.25172 23.9763 9.35022 23.9305C9.44871 23.8846 9.53728 23.8176 9.61033 23.7336C9.68338 23.6496 9.73934 23.5504 9.77474 23.4423C9.81015 23.3341 9.82421 23.2193 9.81604 23.1051C9.80283 19.8252 11.0105 16.6735 13.1743 14.3412C15.3381 12.0089 18.2815 10.6863 21.3589 10.6634C21.5631 10.6596 21.7576 10.5702 21.9003 10.4145C22.043 10.2588 22.1224 10.0494 22.1212 9.83174Z" fill="#F2F2F2"/>
<path d="M28.2765 20.1523C28.1192 20.0198 27.9265 19.9711 27.7406 20.0167C27.5547 20.0624 27.3909 20.1986 27.2851 20.3957L25.0176 24.6067C24.9445 24.7409 24.902 24.8976 24.8949 25.0599C24.8877 25.2221 24.9161 25.3838 24.9769 25.5273C25.0378 25.6708 25.1287 25.7907 25.24 25.874C25.3513 25.9573 25.4786 26.0009 25.6082 26C25.7249 26.0007 25.8399 25.9651 25.943 25.8964C26.0461 25.8277 26.134 25.728 26.1988 25.6063L28.4664 21.3954C28.5195 21.2983 28.5566 21.1889 28.5758 21.0737C28.595 20.9585 28.5957 20.8397 28.5781 20.7242C28.5604 20.6086 28.5247 20.4985 28.4729 20.4004C28.4211 20.3022 28.3544 20.2179 28.2765 20.1523Z" fill="#F2F2F2"/>
<path d="M33.7348 20.144C33.5394 20.0187 33.2998 19.9726 33.0687 20.0158C32.8376 20.059 32.6339 20.1878 32.5024 20.3741L28.7434 25.6778C28.6116 25.8636 28.5624 26.0916 28.6067 26.312C28.651 26.5323 28.7851 26.7269 28.9796 26.853C29.1313 26.9504 29.3103 27.0016 29.4931 27C29.6381 26.9998 29.7808 26.9657 29.9088 26.9008C30.0368 26.836 30.1462 26.7422 30.2275 26.6278L33.9864 21.3193C34.0517 21.2266 34.0969 21.1225 34.1196 21.013C34.1422 20.9035 34.1418 20.7908 34.1184 20.6814C34.095 20.5721 34.049 20.4682 33.9832 20.376C33.9173 20.2837 33.8329 20.2048 33.7348 20.144Z" fill="#F2F2F2"/>
</svg>
