<svg width="44" height="46" viewBox="0 0 44 46" fill="none" xmlns="http://www.w3.org/2000/svg">
<path d="M8.25754 23C6.97795 23 5.7271 23.4105 4.66316 24.1797C3.59923 24.9489 2.76999 26.0421 2.28032 27.3212C1.79064 28.6003 1.66252 30.0078 1.91216 31.3656C2.16179 32.7235 2.77796 33.9708 3.68276 34.9497C4.58756 35.9287 5.74036 36.5954 6.99535 36.8655C8.25035 37.1356 9.5512 36.997 10.7334 36.4671C11.9156 35.9373 12.926 35.0401 13.6369 33.889C14.3478 32.7378 14.7272 31.3845 14.7272 30C14.7256 28.144 14.0434 26.3646 12.8305 25.0522C11.6175 23.7399 9.9729 23.0018 8.25754 23ZM8.25754 35.711C7.21358 35.711 6.19306 35.376 5.32505 34.7485C4.45703 34.121 3.7805 33.229 3.381 32.1855C2.98149 31.142 2.87697 29.9937 3.08063 28.8859C3.2843 27.778 3.78701 26.7604 4.52519 25.9617C5.26338 25.163 6.20388 24.6191 7.22778 24.3988C8.25167 24.1784 9.31298 24.2915 10.2775 24.7237C11.242 25.156 12.0663 25.888 12.6463 26.8272C13.2263 27.7663 13.5359 28.8705 13.5359 30C13.5342 31.5141 12.9776 32.9657 11.988 34.0363C10.9985 35.1069 9.65693 35.7092 8.25754 35.711Z" fill="#0B1C8A"/>
<path d="M8.25752 26C7.52633 26 6.81156 26.2346 6.20359 26.6741C5.59563 27.1136 5.12177 27.7383 4.84195 28.4693C4.56214 29.2002 4.48894 30.0044 4.63159 30.7804C4.77424 31.5563 5.12632 32.269 5.64335 32.8284C6.16039 33.3878 6.81914 33.7688 7.53628 33.9231C8.25343 34.0775 8.99676 33.9983 9.6723 33.6955C10.3478 33.3928 10.9252 32.8801 11.3314 32.2223C11.7377 31.5645 11.9545 30.7911 11.9545 30C11.9536 28.9394 11.5638 27.9226 10.8707 27.1727C10.1775 26.4228 9.23774 26.001 8.25752 26ZM8.25752 32.5509C7.78914 32.5509 7.33128 32.4006 6.94184 32.1191C6.5524 31.8376 6.24887 31.4374 6.06963 30.9692C5.89039 30.501 5.84349 29.9858 5.93486 29.4888C6.02624 28.9918 6.25178 28.5352 6.58298 28.1769C6.91417 27.8185 7.33614 27.5745 7.79552 27.4756C8.2549 27.3768 8.73106 27.4275 9.16378 27.6214C9.59651 27.8154 9.96636 28.1438 10.2266 28.5652C10.4868 28.9865 10.6257 29.4819 10.6257 29.9887C10.6257 30.6682 10.3762 31.3199 9.93206 31.8005C9.48795 32.281 8.88559 32.5509 8.25752 32.5509Z" fill="#0B1C8A"/>
<path d="M35.9433 22.6772C35.3974 22.676 34.8535 22.7504 34.3245 22.8988H34.2647L33.4616 20.4413L34.4599 20.064C35.5215 19.8699 36.6061 19.8852 37.6628 20.109C37.7006 20.1124 37.7385 20.1124 37.7762 20.109C37.9158 20.1085 38.0508 20.0547 38.1583 19.9569C38.2657 19.859 38.3389 19.7231 38.3652 19.5725C38.3925 19.4007 38.3599 19.224 38.2738 19.0775C38.1836 18.9335 38.0457 18.8341 37.8896 18.8006C37.2514 18.665 36.6028 18.5966 35.9527 18.5964C35.5317 18.596 35.111 18.6238 34.693 18.6795H34.6394L32.3593 11.6911C32.3172 11.5632 32.2401 11.4526 32.1386 11.3745C32.0372 11.2965 31.9163 11.2547 31.7924 11.255C31.7238 11.2556 31.6557 11.2684 31.5909 11.2931L30.5956 11.6877L30.139 10.3032C30.0104 9.92409 29.7802 9.59679 29.4788 9.36444C29.1774 9.1321 28.819 9.00562 28.4509 9.00173H26.1172C26.0348 8.99516 25.952 9.00734 25.874 9.0375C25.7961 9.06766 25.7246 9.11516 25.6641 9.17703C25.6035 9.2389 25.5553 9.31382 25.5223 9.3971C25.4893 9.48039 25.4722 9.57027 25.4722 9.66111C25.4722 9.75196 25.4893 9.84182 25.5223 9.9251C25.5553 10.0084 25.6035 10.0833 25.6641 10.1452C25.7246 10.2071 25.7961 10.2545 25.874 10.2847C25.952 10.3149 26.0348 10.327 26.1172 10.3205H28.4163C28.5396 10.3181 28.6608 10.3555 28.765 10.4281C28.8691 10.5007 28.9515 10.6053 29.0021 10.7289C29.0021 10.7566 29.295 11.6219 29.443 12.0788L29.465 12.148L28.4761 12.5495C28.3263 12.6089 28.2041 12.7312 28.1362 12.8895C28.0683 13.0479 28.0603 13.2293 28.1139 13.3941L28.2557 13.8302L28.1328 13.7956C27.4756 13.6162 26.8007 13.5267 26.1236 13.5291C24.7723 13.494 23.4398 13.8817 22.2813 14.6471C21.7806 14.969 20.0012 16.0316 18.1493 16.0316C17.7313 16.0335 17.3149 15.973 16.9116 15.8516C11.1357 14.0483 3.72836 11.6358 3.66222 11.615C3.60594 11.597 3.54762 11.5876 3.48899 11.5873C3.37518 11.588 3.26387 11.6241 3.16798 11.6915C3.0721 11.7589 2.99558 11.8548 2.94731 11.968C2.64243 12.7583 2.63337 13.6488 2.92211 14.4463C3.29059 15.3947 4.09052 16.1008 5.29988 16.5473C9.68696 18.2434 11.0727 19.8355 12.0868 20.9985C13.2017 22.2792 13.9512 23.0061 16.4077 23.0061H16.4707L16.4865 23.0545C17.658 26.5919 18.3415 28.6306 18.3477 28.6479C18.3898 28.775 18.4665 28.8847 18.5674 28.9621C18.6683 29.0396 18.7884 29.0809 18.9115 29.0806H24.9236C25.0087 29.0808 25.0928 29.0611 25.1704 29.0229C25.2481 28.9847 25.3174 28.9289 25.374 28.8591L31.4775 21.2443L32.3278 20.8981L33.134 23.366L33.0805 23.3937C31.6409 24.1643 30.5097 25.4903 29.9026 27.1188C29.2955 28.7473 29.255 30.5644 29.7888 32.2236C30.3226 33.8828 31.3934 35.268 32.7969 36.1152C34.2004 36.9624 35.8386 37.2122 37.399 36.817C38.9594 36.4218 40.3329 35.4093 41.2575 33.9726C42.1822 32.5358 42.5934 30.7752 42.4127 29.0266C42.232 27.2779 41.472 25.6636 40.2777 24.4913C39.0834 23.319 37.5383 22.6708 35.937 22.6703L35.9433 22.6772ZM26.1298 14.8478C27.0315 14.8336 27.926 15.0258 28.7564 15.412H28.7816L29.8051 18.5272H22.3758L22.3569 18.5029C22.0778 18.2072 21.9141 17.8039 21.9002 17.378C21.9002 16.1735 23.5977 14.8478 26.1298 14.8478ZM24.6591 27.7515H19.3429L18.7698 26.0208H23.2104C23.2928 26.0274 23.3756 26.0152 23.4536 25.9851C23.5316 25.9549 23.603 25.9074 23.6635 25.8455C23.7241 25.7837 23.7723 25.7088 23.8053 25.6255C23.8384 25.5422 23.8554 25.4523 23.8554 25.3615C23.8554 25.2706 23.8384 25.1807 23.8053 25.0975C23.7723 25.0142 23.7241 24.9392 23.6635 24.8774C23.603 24.8155 23.5316 24.768 23.4536 24.7379C23.3756 24.7077 23.2928 24.6955 23.2104 24.7021H18.3257L17.7525 22.9715H21.2987C21.3812 22.978 21.4639 22.9658 21.5419 22.9357C21.6199 22.9055 21.6913 22.858 21.7519 22.7962C21.8124 22.7343 21.8607 22.6594 21.8937 22.5761C21.9267 22.4928 21.9437 22.4029 21.9437 22.3121C21.9437 22.2212 21.9267 22.1313 21.8937 22.0481C21.8607 21.9648 21.8124 21.8899 21.7519 21.828C21.6913 21.7661 21.6199 21.7186 21.5419 21.6885C21.4639 21.6583 21.3812 21.6461 21.2987 21.6527H16.8896H16.4077C14.3638 21.6527 13.8693 21.085 12.9718 20.0536C11.8758 18.7937 10.3767 17.07 5.70932 15.2667C4.84009 14.9448 4.28264 14.4878 4.04959 13.9098C3.95057 13.6687 3.90316 13.4058 3.91102 13.1414V13.048L3.98975 13.0757C5.7282 13.6364 11.7624 15.592 16.5872 17.0942C17.0998 17.2512 17.6298 17.3293 18.1619 17.3261C19.0099 17.3137 19.8511 17.1585 20.6562 16.8658L20.7602 16.8277L20.7413 16.9488C20.7175 17.0962 20.7059 17.2456 20.7066 17.3953C20.7179 17.8381 20.8161 18.273 20.9943 18.6702C21.1726 19.0675 21.4268 19.4177 21.7396 19.6971C21.8499 19.8044 21.9922 19.8635 22.1396 19.8632H30.2429L30.4571 20.5174L24.6591 27.7515ZM31.4964 19.8321L29.4524 13.5672L31.4428 12.7815L33.4899 19.0464L31.4964 19.8321ZM35.9433 35.6812C34.8919 35.6812 33.864 35.3386 32.9898 34.6966C32.1156 34.0546 31.4342 33.1421 31.0318 32.0745C30.6295 31.0069 30.5242 29.8321 30.7293 28.6988C30.9344 27.5654 31.4407 26.5243 32.1842 25.7072C32.9277 24.8901 33.8749 24.3337 34.9062 24.1082C35.9374 23.8828 37.0063 23.9985 37.9777 24.4407C38.9491 24.8829 39.7793 25.6318 40.3635 26.5926C40.9476 27.5534 41.2594 28.683 41.2594 29.8386C41.2578 31.3876 40.6971 32.8726 39.7005 33.968C38.7039 35.0633 37.3527 35.6794 35.9433 35.6812Z" fill="#0B1C8A"/>
<path d="M35.9883 26C35.257 25.9993 34.5419 26.2332 33.9334 26.6723C33.325 27.1114 32.8506 27.7358 32.5703 28.4667C32.2899 29.1975 32.2162 30.0019 32.3585 30.778C32.5007 31.5542 32.8525 32.2673 33.3694 32.8271C33.8863 33.3869 34.5451 33.7682 35.2623 33.9229C35.9795 34.0775 36.7231 33.9985 37.3988 33.6959C38.0745 33.3932 38.6521 32.8806 39.0585 32.2227C39.4649 31.5648 39.6818 30.7913 39.6818 30C39.6809 28.9401 39.2915 27.9238 38.5992 27.174C37.9068 26.4242 36.9679 26.002 35.9883 26ZM35.9883 32.5623C35.5198 32.563 35.0616 32.4134 34.6717 32.1323C34.2818 31.8512 33.9777 31.4513 33.7979 30.9832C33.6182 30.515 33.5708 29.9997 33.6617 29.5024C33.7527 29.0052 33.978 28.5483 34.309 28.1896C34.6401 27.8308 35.0621 27.5864 35.5215 27.4873C35.981 27.3881 36.4573 27.4386 36.8903 27.6324C37.3232 27.8262 37.6932 28.1546 37.9536 28.5761C38.214 28.9975 38.353 29.4931 38.353 30C38.3493 30.6766 38.0988 31.3243 37.6559 31.8021C37.213 32.2798 36.6137 32.549 35.9883 32.551V32.5623Z" fill="#0B1C8A"/>
</svg>
