<svg width="44" height="46" viewBox="0 0 44 46" fill="none" xmlns="http://www.w3.org/2000/svg">
<path d="M22.1186 17C22.3637 17 22.5988 16.9185 22.7721 16.7734C22.9455 16.6284 23.0428 16.4317 23.0428 16.2265V14.8294C23.052 14.7234 23.035 14.6169 22.9928 14.5167C22.9507 14.4164 22.8843 14.3245 22.7978 14.2467C22.7113 14.1689 22.6066 14.1068 22.4901 14.0644C22.3737 14.0219 22.248 14 22.121 14C21.994 14 21.8684 14.0219 21.7519 14.0644C21.6355 14.1068 21.5308 14.1689 21.4443 14.2467C21.3578 14.3245 21.2914 14.4164 21.2492 14.5167C21.207 14.6169 21.19 14.7234 21.1992 14.8294V16.2265C21.1992 16.431 21.2959 16.6271 21.4682 16.772C21.6405 16.917 21.8743 16.9989 22.1186 17Z" fill="#0B1C8A"/>
<path d="M17.7682 16.3053C17.7298 16.2379 17.676 16.1781 17.6103 16.1296C17.5446 16.0811 17.4682 16.0449 17.3859 16.0233C17.3036 16.0016 17.2172 15.995 17.1319 16.0038C17.0465 16.0125 16.9642 16.0365 16.8898 16.0743C16.8155 16.112 16.7507 16.1628 16.6996 16.2233C16.6484 16.2838 16.6119 16.3529 16.5923 16.4263C16.5727 16.4997 16.5704 16.5758 16.5856 16.65C16.6008 16.7242 16.6331 16.7949 16.6806 16.8577L17.2508 17.7253C17.3058 17.809 17.3851 17.8785 17.4806 17.9267C17.5761 17.9749 17.6844 18.0002 17.7946 18C17.9051 18.0005 18.0138 17.9754 18.1097 17.9271C18.2055 17.8788 18.2851 17.8091 18.3404 17.7251C18.3956 17.6411 18.4245 17.5458 18.4242 17.4488C18.4238 17.3518 18.3942 17.2566 18.3384 17.1729L17.7682 16.3053Z" fill="#0B1C8A"/>
<path d="M15.265 20.0701L14.042 19.1377C13.8637 19.0011 13.6518 18.9643 13.453 19.0355C13.2543 19.1067 13.0849 19.2799 12.9822 19.5172C12.8795 19.7544 12.8518 20.0361 12.9054 20.3005C12.9589 20.5648 13.0891 20.79 13.2675 20.9266L14.4904 21.8645C14.6086 21.9533 14.742 22 14.8777 22C15.0484 21.9986 15.214 21.9226 15.349 21.7837C15.4841 21.6449 15.5811 21.4509 15.6251 21.2316C15.6691 21.0122 15.6577 20.7798 15.5926 20.5699C15.5275 20.36 15.4124 20.1844 15.265 20.0701Z" fill="#0B1C8A"/>
<path d="M14.7272 25.5C14.7272 25.3674 14.6249 25.2402 14.4428 25.1465C14.2606 25.0527 14.0136 25 13.756 25H12.0015C11.7439 25 11.4969 25.0527 11.3148 25.1465C11.1326 25.2402 11.0303 25.3674 11.0303 25.5C11.0303 25.6326 11.1326 25.7598 11.3148 25.8535C11.4969 25.9473 11.7439 26 12.0015 26H13.756C14.0136 26 14.2606 25.9473 14.4428 25.8535C14.6249 25.7598 14.7272 25.6326 14.7272 25.5Z" fill="#0B1C8A"/>
<path d="M14.488 29.1374L13.2651 30.0736C13.1176 30.1877 13.0025 30.363 12.9375 30.5725C12.8724 30.782 12.861 31.014 12.905 31.233C12.949 31.4519 13.046 31.6455 13.181 31.7841C13.3161 31.9227 13.4817 31.9986 13.6524 32C13.7884 31.9981 13.9218 31.9497 14.0396 31.8593L15.2625 30.9232C15.3509 30.8556 15.4283 30.7657 15.4904 30.6585C15.5526 30.5512 15.5982 30.4288 15.6247 30.2981C15.6512 30.1675 15.6581 30.0312 15.6449 29.897C15.6317 29.7629 15.5987 29.6335 15.5479 29.5162C15.497 29.399 15.4293 29.2961 15.3485 29.2137C15.2677 29.1312 15.1754 29.0706 15.077 29.0354C14.9786 29.0003 14.876 28.9912 14.7749 29.0087C14.6738 29.0262 14.5763 29.0699 14.488 29.1374Z" fill="#0B1C8A"/>
<path d="M30.9734 30.0728L29.7334 29.1103C29.5535 28.9913 29.3462 28.9676 29.1536 29.044C28.961 29.1204 28.7977 29.2911 28.697 29.5213C28.5963 29.7515 28.5658 30.0239 28.6116 30.2829C28.6575 30.5419 28.7763 30.7679 28.9439 30.915L30.1839 31.8611C30.3648 31.9989 30.5796 32.036 30.7812 31.9642C30.9827 31.8924 31.1544 31.7176 31.2586 31.4783C31.3627 31.239 31.3907 30.9547 31.3365 30.688C31.2822 30.4214 31.1501 30.1942 30.9692 30.0564L30.9734 30.0728Z" fill="#0B1C8A"/>
<path d="M29.5151 25.5C29.5151 25.6321 29.6168 25.7589 29.7978 25.8526C29.9789 25.9463 30.2246 25.9993 30.4813 26H32.2408C32.4984 26 32.7455 25.9473 32.9276 25.8535C33.1098 25.7598 33.2121 25.6326 33.2121 25.5C33.2121 25.3674 33.1098 25.2402 32.9276 25.1465C32.7455 25.0527 32.4984 25 32.2408 25H30.4813C30.2246 25.0007 29.9789 25.0537 29.7978 25.1474C29.6168 25.2411 29.5151 25.3678 29.5151 25.5Z" fill="#0B1C8A"/>
<path d="M29.3647 21.9998C29.5004 21.9998 29.6338 21.9531 29.7519 21.8643L30.9747 20.9265C31.1531 20.7899 31.2834 20.5647 31.3369 20.3004C31.3904 20.0361 31.3627 19.7543 31.26 19.5171C31.1573 19.2799 30.988 19.1067 30.7892 19.0355C30.5905 18.9643 30.3786 19.0011 30.2003 19.1377L28.9775 20.07C28.8284 20.1855 28.7125 20.3635 28.6477 20.5761C28.583 20.7886 28.5732 21.0238 28.6198 21.2446C28.6665 21.4655 28.7669 21.6594 28.9054 21.7961C29.0439 21.9328 29.2126 22.0044 29.3851 21.9998H29.3647Z" fill="#0B1C8A"/>
<path d="M27.3456 16.075C27.1979 16.0004 27.0229 15.9805 26.8587 16.0196C26.6945 16.0586 26.5545 16.1535 26.4692 16.2834L25.8861 17.1768C25.8128 17.3064 25.7981 17.4558 25.8452 17.5945C25.8923 17.7333 25.9975 17.8509 26.1394 17.9235C26.2813 17.996 26.4492 18.018 26.6088 17.985C26.7684 17.9519 26.9078 17.8663 26.9984 17.7456L27.5815 16.8522C27.6661 16.7213 27.6887 16.5663 27.6445 16.4207C27.6003 16.2752 27.4929 16.1509 27.3456 16.075Z" fill="#0B1C8A"/>
<path d="M25.4169 21.1853L23.3843 23.1318C22.9853 22.9255 22.5379 22.8182 22.0835 22.8196C21.4848 22.8189 20.9024 23.0047 20.426 23.3484C19.9495 23.6922 19.6054 24.1748 19.4464 24.7221C19.2875 25.2695 19.3226 25.8511 19.5463 26.3777C19.77 26.9042 20.1699 27.3465 20.6846 27.6365C21.1993 27.9265 21.8002 28.0482 22.3949 27.9827C22.9896 27.9173 23.5452 27.6684 23.9762 27.2744C24.4072 26.8804 24.6897 26.363 24.7804 25.8019C24.871 25.2407 24.7647 24.6669 24.4778 24.1686L26.5307 22.2414C26.6693 22.1021 26.7452 21.917 26.7422 21.7255C26.7393 21.534 26.6578 21.3511 26.5149 21.2156C26.3721 21.0802 26.1792 21.0029 25.9772 21.0001C25.7752 20.9973 25.5801 21.0693 25.4331 21.2007L25.4169 21.1853ZM22.0672 26.5199C21.8351 26.5191 21.6083 26.4531 21.4157 26.3303C21.223 26.2074 21.0731 26.0332 20.9848 25.8296C20.8965 25.6259 20.8738 25.4021 20.9196 25.1863C20.9654 24.9704 21.0776 24.7723 21.242 24.6169C21.4065 24.4615 21.6158 24.3558 21.8436 24.3131C22.0714 24.2704 22.3074 24.2927 22.5218 24.3772C22.7362 24.4616 22.9195 24.6043 23.0484 24.7874C23.1773 24.9705 23.2461 25.1858 23.2461 25.4059C23.245 25.7017 23.1203 25.9851 22.8994 26.1938C22.6784 26.4026 22.3792 26.5199 22.0672 26.5199Z" fill="#0B1C8A"/>
<path d="M22.1271 7C18.5834 6.99978 15.1225 8.14991 12.199 10.2993C9.27552 12.4487 7.02611 15.4969 5.74623 19.0434C4.46636 22.5899 4.21588 26.469 5.0277 30.1711C5.83952 33.8733 7.67567 37.2253 10.295 39.7869C10.4339 39.9232 10.615 39.9991 10.8032 40H33.4351C33.6245 39.9994 33.807 39.9234 33.9473 39.7869C36.5669 37.225 38.4031 33.8726 39.2148 30.1701C40.0265 26.4676 39.7757 22.5881 38.4954 19.0414C37.215 15.4947 34.965 12.4466 32.0408 10.2975C29.1167 8.14842 25.6553 6.99892 22.1112 7H22.1271ZM26.0976 33.1051C26.0303 32.9842 25.9349 32.8842 25.8208 32.8147C25.7066 32.7453 25.5777 32.7088 25.4465 32.7088H18.8157C18.6847 32.71 18.5562 32.747 18.4422 32.8164C18.3283 32.8857 18.2327 32.9851 18.1645 33.1051L17.2434 34.7585H12.5344C10.937 32.7836 9.90243 30.3574 9.55401 27.7691C9.20559 25.1808 9.55801 22.5395 10.5693 20.1602C11.5805 17.7808 13.2079 15.7637 15.2575 14.3493C17.3071 12.9349 19.6924 12.1829 22.1291 12.1829C24.5658 12.1829 26.9511 12.9349 29.0007 14.3493C31.0503 15.7637 32.6777 17.7808 33.6889 20.1602C34.7002 22.5395 35.0526 25.1808 34.7042 27.7691C34.3558 30.3574 33.3212 32.7836 31.7238 34.7585H27.0108L26.0976 33.1051ZM19.2445 34.3324H25.0256L27.265 38.3764H17.0051L19.2445 34.3324ZM33.1413 38.3764H28.9961L27.8963 36.3906H32.0494C32.154 36.3899 32.2573 36.366 32.353 36.3206C32.4486 36.2751 32.5345 36.209 32.6053 36.1264C34.4606 33.943 35.6845 31.2278 36.1282 28.3114C36.5718 25.395 36.216 22.403 35.1041 19.6997C33.9922 16.9963 32.1721 14.6981 29.8654 13.0847C27.5586 11.4714 24.8646 10.6124 22.1112 10.6124C19.3579 10.6124 16.6639 11.4714 14.3571 13.0847C12.0503 14.6981 10.2302 16.9963 9.11833 19.6997C8.00642 22.403 7.65064 25.395 8.09428 28.3114C8.53793 31.2278 9.76188 33.943 11.6172 36.1264C11.6884 36.2096 11.775 36.276 11.8713 36.3214C11.9677 36.3669 12.0718 36.3905 12.177 36.3906H16.3262L15.2264 38.3764H11.101C8.76412 36.0072 7.14364 32.9397 6.44933 29.571C5.75503 26.2023 6.01886 22.6875 7.20666 19.4815C8.39447 16.2755 10.4516 13.526 13.1117 11.5888C15.7718 9.65169 18.9125 8.61606 22.1271 8.61606C25.3418 8.61606 28.4824 9.65169 31.1425 11.5888C33.8027 13.526 35.8598 16.2755 37.0476 19.4815C38.2354 22.6875 38.4992 26.2023 37.8049 29.571C37.1106 32.9397 35.4901 36.0072 33.1532 38.3764H33.1413Z" fill="#0B1C8A"/>
</svg>
